<svg xmlns="http://www.w3.org/2000/svg" viewBox="0 0 128 128" role="img" aria-labelledby="title">
  <title>Beav Paper favicon</title>
  <rect width="128" height="128" rx="24" fill="#2b211b" />
  <path
    d="M38 28h26c15.5 0 26 8.7 26 21.6 0 8.4-4.3 14.6-11.8 17.6 9.1 2.8 14.3 9.6 14.3 19.1C92.5 101.3 80.7 110 63.6 110H38V28Zm22.8 33.4c8.7 0 13.4-3.4 13.4-9.7 0-6.1-4.7-9.2-13.4-9.2H54.2v18.9h6.6Zm2.8 34.1c9.6 0 14.8-3.6 14.8-10.7 0-7.1-5.2-10.9-14.8-10.9H54.2v21.6h9.4Z"
    fill="#ff7f32"
  />
</svg>
